<?xml version="1.0" encoding="UTF-8"?>
<svg width="50pt" height="50pt" version="1.1" viewBox="0 0 700 700" xmlns="http://www.w3.org/2000/svg" xmlns:xlink="http://www.w3.org/1999/xlink">
 <defs>
  <symbol id="s" overflow="visible">
   <path d="m18.766-1.125c-0.96875 0.5-1.9805 0.875-3.0312 1.125-1.043 0.25781-2.1367 0.39062-3.2812 0.39062-3.3984 0-6.0898-0.94531-8.0781-2.8438-1.9922-1.9062-2.9844-4.4844-2.9844-7.7344 0-3.2578 0.99219-5.8359 2.9844-7.7344 1.9883-1.9062 4.6797-2.8594 8.0781-2.8594 1.1445 0 2.2383 0.13281 3.2812 0.39062 1.0508 0.25 2.0625 0.625 3.0312 1.125v4.2188c-0.98047-0.65625-1.9453-1.1406-2.8906-1.4531-0.94922-0.3125-1.9492-0.46875-3-0.46875-1.875 0-3.3516 0.60547-4.4219 1.8125-1.0742 1.1992-1.6094 2.8555-1.6094 4.9688 0 2.1055 0.53516 3.7617 1.6094 4.9688 1.0703 1.1992 2.5469 1.7969 4.4219 1.7969 1.0508 0 2.0508-0.14844 3-0.45312 0.94531-0.3125 1.9102-0.80078 2.8906-1.4688z"/>
  </symbol>
  <symbol id="e" overflow="visible">
   <path d="m13.734-11.141c-0.4375-0.19531-0.87109-0.34375-1.2969-0.4375-0.41797-0.10156-0.83984-0.15625-1.2656-0.15625-1.2617 0-2.2305 0.40625-2.9062 1.2188-0.67969 0.80469-1.0156 1.9531-1.0156 3.4531v7.0625h-4.8906v-15.312h4.8906v2.5156c0.625-1 1.3438-1.7266 2.1562-2.1875 0.82031-0.46875 1.8008-0.70312 2.9375-0.70312 0.16406 0 0.34375 0.011719 0.53125 0.03125 0.19531 0.011719 0.47656 0.039062 0.84375 0.078125z"/>
  </symbol>
  <symbol id="a" overflow="visible">
   <path d="m17.641-7.7031v1.4062h-11.453c0.125 1.1484 0.53906 2.0078 1.25 2.5781 0.70703 0.57422 1.7031 0.85938 2.9844 0.85938 1.0312 0 2.082-0.14844 3.1562-0.45312 1.082-0.3125 2.1914-0.77344 3.3281-1.3906v3.7656c-1.1562 0.4375-2.3125 0.76562-3.4688 0.98438-1.1562 0.22656-2.3125 0.34375-3.4688 0.34375-2.7734 0-4.9297-0.70312-6.4688-2.1094-1.5312-1.4062-2.2969-3.3789-2.2969-5.9219 0-2.5 0.75391-4.4609 2.2656-5.8906 1.5078-1.4375 3.582-2.1562 6.2188-2.1562 2.4062 0 4.332 0.73047 5.7812 2.1875 1.4453 1.4492 2.1719 3.3828 2.1719 5.7969zm-5.0312-1.625c0-0.92578-0.27344-1.6719-0.8125-2.2344-0.54297-0.57031-1.25-0.85938-2.125-0.85938-0.94922 0-1.7188 0.26562-2.3125 0.79688s-0.96484 1.2969-1.1094 2.2969z"/>
  </symbol>
  <symbol id="d" overflow="visible">
   <path d="m9.2188-6.8906c-1.0234 0-1.793 0.17188-2.3125 0.51562-0.51172 0.34375-0.76562 0.85547-0.76562 1.5312 0 0.625 0.20703 1.1172 0.625 1.4688 0.41406 0.34375 0.98828 0.51562 1.7188 0.51562 0.92578 0 1.7031-0.32812 2.3281-0.98438 0.63281-0.66406 0.95312-1.4922 0.95312-2.4844v-0.5625zm7.4688-1.8438v8.7344h-4.9219v-2.2656c-0.65625 0.92969-1.3984 1.6055-2.2188 2.0312-0.82422 0.41406-1.8242 0.625-3 0.625-1.5859 0-2.8711-0.45703-3.8594-1.375-0.99219-0.92578-1.4844-2.1289-1.4844-3.6094 0-1.7891 0.61328-3.1016 1.8438-3.9375 1.2383-0.84375 3.1797-1.2656 5.8281-1.2656h2.8906v-0.39062c0-0.76953-0.30859-1.332-0.92188-1.6875-0.61719-0.36328-1.5703-0.54688-2.8594-0.54688-1.0547 0-2.0312 0.10547-2.9375 0.3125-0.89844 0.21094-1.7305 0.52344-2.5 0.9375v-3.7344c1.0391-0.25 2.0859-0.44141 3.1406-0.57812 1.0625-0.13281 2.125-0.20312 3.1875-0.20312 2.7578 0 4.75 0.54688 5.9688 1.6406 1.2266 1.0859 1.8438 2.8555 1.8438 5.3125z"/>
  </symbol>
  <symbol id="c" overflow="visible">
   <path d="m7.7031-19.656v4.3438h5.0469v3.5h-5.0469v6.5c0 0.71094 0.14062 1.1875 0.42188 1.4375s0.83594 0.375 1.6719 0.375h2.5156v3.5h-4.1875c-1.9375 0-3.3125-0.39844-4.125-1.2031-0.80469-0.8125-1.2031-2.1797-1.2031-4.1094v-6.5h-2.4219v-3.5h2.4219v-4.3438z"/>
  </symbol>
  <symbol id="b" overflow="visible">
   <path d="m12.766-13.078v-8.2031h4.9219v21.281h-4.9219v-2.2188c-0.66797 0.90625-1.4062 1.5703-2.2188 1.9844s-1.7578 0.625-2.8281 0.625c-1.8867 0-3.4336-0.75-4.6406-2.25-1.2109-1.5-1.8125-3.4258-1.8125-5.7812 0-2.3633 0.60156-4.2969 1.8125-5.7969 1.207-1.5 2.7539-2.25 4.6406-2.25 1.0625 0 2 0.21484 2.8125 0.64062 0.82031 0.42969 1.5664 1.0859 2.2344 1.9688zm-3.2188 9.9219c1.0391 0 1.8359-0.37891 2.3906-1.1406 0.55078-0.76953 0.82812-1.8828 0.82812-3.3438 0-1.457-0.27734-2.5664-0.82812-3.3281-0.55469-0.76953-1.3516-1.1562-2.3906-1.1562-1.043 0-1.8398 0.38672-2.3906 1.1562-0.55469 0.76172-0.82812 1.8711-0.82812 3.3281 0 1.4609 0.27344 2.5742 0.82812 3.3438 0.55078 0.76172 1.3477 1.1406 2.3906 1.1406z"/>
  </symbol>
  <symbol id="i" overflow="visible">
   <path d="m10.5-3.1562c1.0508 0 1.8516-0.37891 2.4062-1.1406 0.55078-0.76953 0.82812-1.8828 0.82812-3.3438 0-1.457-0.27734-2.5664-0.82812-3.3281-0.55469-0.76953-1.3555-1.1562-2.4062-1.1562-1.0547 0-1.8594 0.38672-2.4219 1.1562-0.55469 0.77344-0.82812 1.8828-0.82812 3.3281 0 1.4492 0.27344 2.5586 0.82812 3.3281 0.5625 0.77344 1.3672 1.1562 2.4219 1.1562zm-3.25-9.9219c0.67578-0.88281 1.4219-1.5391 2.2344-1.9688 0.82031-0.42578 1.7656-0.64062 2.8281-0.64062 1.8945 0 3.4453 0.75 4.6562 2.25 1.207 1.5 1.8125 3.4336 1.8125 5.7969 0 2.3555-0.60547 4.2812-1.8125 5.7812-1.2109 1.5-2.7617 2.25-4.6562 2.25-1.0625 0-2.0078-0.21094-2.8281-0.625-0.8125-0.42578-1.5586-1.0859-2.2344-1.9844v2.2188h-4.8906v-21.281h4.8906z"/>
  </symbol>
  <symbol id="h" overflow="visible">
   <path d="m0.34375-15.312h4.8906l4.125 10.391 3.5-10.391h4.8906l-6.4375 16.766c-0.64844 1.6953-1.4023 2.8828-2.2656 3.5625-0.86719 0.6875-2 1.0312-3.4062 1.0312h-2.8438v-3.2188h1.5312c0.83203 0 1.4375-0.13672 1.8125-0.40625 0.38281-0.26172 0.67969-0.73047 0.89062-1.4062l0.14062-0.42188z"/>
  </symbol>
  <symbol id="g" overflow="visible">
   <path d="m2.5781-20.406h6.6875l4.6562 10.922 4.6719-10.922h6.6875v20.406h-4.9844v-14.938l-4.7031 11.016h-3.3281l-4.7031-11.016v14.938h-4.9844z"/>
  </symbol>
  <symbol id="r" overflow="visible">
   <path d="m12.422-21.281v3.2188h-2.7031c-0.6875 0-1.1719 0.125-1.4531 0.375-0.27344 0.25-0.40625 0.6875-0.40625 1.3125v1.0625h4.1875v3.5h-4.1875v11.812h-4.8906v-11.812h-2.4375v-3.5h2.4375v-1.0625c0-1.6641 0.46094-2.8984 1.3906-3.7031 0.92578-0.80078 2.3672-1.2031 4.3281-1.2031z"/>
  </symbol>
  <symbol id="f" overflow="visible">
   <path d="m9.6406-12.188c-1.0859 0-1.9141 0.39062-2.4844 1.1719-0.57422 0.78125-0.85938 1.9062-0.85938 3.375s0.28516 2.5938 0.85938 3.375c0.57031 0.77344 1.3984 1.1562 2.4844 1.1562 1.0625 0 1.875-0.38281 2.4375-1.1562 0.57031-0.78125 0.85938-1.9062 0.85938-3.375s-0.28906-2.5938-0.85938-3.375c-0.5625-0.78125-1.375-1.1719-2.4375-1.1719zm0-3.5c2.6328 0 4.6914 0.71484 6.1719 2.1406 1.4766 1.418 2.2188 3.3867 2.2188 5.9062 0 2.5117-0.74219 4.4805-2.2188 5.9062-1.4805 1.418-3.5391 2.125-6.1719 2.125-2.6484 0-4.7148-0.70703-6.2031-2.125-1.4922-1.4258-2.2344-3.3945-2.2344-5.9062 0-2.5195 0.74219-4.4883 2.2344-5.9062 1.4883-1.4258 3.5547-2.1406 6.2031-2.1406z"/>
  </symbol>
  <symbol id="q" overflow="visible">
   <path d="m16.547-12.766c0.61328-0.94531 1.3477-1.6719 2.2031-2.1719 0.85156-0.5 1.7891-0.75 2.8125-0.75 1.7578 0 3.0977 0.54688 4.0156 1.6406 0.92578 1.0859 1.3906 2.6562 1.3906 4.7188v9.3281h-4.9219v-7.9844-0.35938c0.007813-0.13281 0.015625-0.32031 0.015625-0.5625 0-1.082-0.16406-1.8633-0.48438-2.3438-0.3125-0.48828-0.82422-0.73438-1.5312-0.73438-0.92969 0-1.6484 0.38672-2.1562 1.1562-0.51172 0.76172-0.77344 1.8672-0.78125 3.3125v7.5156h-4.9219v-7.9844c0-1.6953-0.14844-2.7852-0.4375-3.2656-0.29297-0.48828-0.8125-0.73438-1.5625-0.73438-0.9375 0-1.6641 0.38672-2.1719 1.1562-0.51172 0.76172-0.76562 1.8594-0.76562 3.2969v7.5312h-4.9219v-15.312h4.9219v2.2344c0.60156-0.86328 1.2891-1.5156 2.0625-1.9531 0.78125-0.4375 1.6406-0.65625 2.5781-0.65625 1.0625 0 2 0.25781 2.8125 0.76562 0.8125 0.51172 1.4258 1.2305 1.8438 2.1562z"/>
  </symbol>
  <symbol id="p" overflow="visible">
   <path d="m17.75-9.3281v9.3281h-4.9219v-7.1094c0-1.3438-0.03125-2.2656-0.09375-2.7656s-0.16797-0.86719-0.3125-1.1094c-0.1875-0.3125-0.44922-0.55469-0.78125-0.73438-0.32422-0.17578-0.69531-0.26562-1.1094-0.26562-1.0234 0-1.8242 0.39844-2.4062 1.1875-0.58594 0.78125-0.875 1.8711-0.875 3.2656v7.5312h-4.8906v-21.281h4.8906v8.2031c0.73828-0.88281 1.5195-1.5391 2.3438-1.9688 0.83203-0.42578 1.75-0.64062 2.75-0.64062 1.7695 0 3.1133 0.54688 4.0312 1.6406 0.91406 1.0859 1.375 2.6562 1.375 4.7188z"/>
  </symbol>
  <symbol id="o" overflow="visible">
   <path d="m2.5781-20.406h5.875l7.4219 14v-14h4.9844v20.406h-5.875l-7.4219-14v14h-4.9844z"/>
  </symbol>
  <symbol id="n" overflow="visible">
   <path d="m2.1875-5.9688v-9.3438h4.9219v1.5312c0 0.83594-0.007813 1.875-0.015625 3.125-0.011719 1.25-0.015625 2.0859-0.015625 2.5 0 1.2422 0.03125 2.1328 0.09375 2.6719 0.070313 0.54297 0.17969 0.93359 0.32812 1.1719 0.20703 0.32422 0.47266 0.57422 0.79688 0.75 0.32031 0.16797 0.69141 0.25 1.1094 0.25 1.0195 0 1.8203-0.39062 2.4062-1.1719 0.58203-0.78125 0.875-1.8672 0.875-3.2656v-7.5625h4.8906v15.312h-4.8906v-2.2188c-0.74219 0.89844-1.5234 1.5586-2.3438 1.9844-0.82422 0.41406-1.7344 0.625-2.7344 0.625-1.7617 0-3.1055-0.53906-4.0312-1.625-0.92969-1.082-1.3906-2.6602-1.3906-4.7344z"/>
  </symbol>
  <symbol id="m" overflow="visible">
   <path d="m17.75-9.3281v9.3281h-4.9219v-7.1406c0-1.3203-0.03125-2.2344-0.09375-2.7344s-0.16797-0.86719-0.3125-1.1094c-0.1875-0.3125-0.44922-0.55469-0.78125-0.73438-0.32422-0.17578-0.69531-0.26562-1.1094-0.26562-1.0234 0-1.8242 0.39844-2.4062 1.1875-0.58594 0.78125-0.875 1.8711-0.875 3.2656v7.5312h-4.8906v-15.312h4.8906v2.2344c0.73828-0.88281 1.5195-1.5391 2.3438-1.9688 0.83203-0.42578 1.75-0.64062 2.75-0.64062 1.7695 0 3.1133 0.54688 4.0312 1.6406 0.91406 1.0859 1.375 2.6562 1.375 4.7188z"/>
  </symbol>
  <symbol id="l" overflow="visible">
   <path d="m2.5781-20.406h8.7344c2.5938 0 4.582 0.57812 5.9688 1.7344 1.3945 1.1484 2.0938 2.7891 2.0938 4.9219 0 2.1367-0.69922 3.7812-2.0938 4.9375-1.3867 1.1562-3.375 1.7344-5.9688 1.7344h-3.4844v7.0781h-5.25zm5.25 3.8125v5.7031h2.9219c1.0195 0 1.8047-0.25 2.3594-0.75 0.5625-0.5 0.84375-1.2031 0.84375-2.1094 0-0.91406-0.28125-1.6172-0.84375-2.1094-0.55469-0.48828-1.3398-0.73438-2.3594-0.73438z"/>
  </symbol>
  <symbol id="k" overflow="visible">
   <path d="m2.3594-15.312h4.8906v15.031c0 2.0508-0.49609 3.6172-1.4844 4.7031-0.98047 1.082-2.4062 1.625-4.2812 1.625h-2.4219v-3.2188h0.85938c0.92578 0 1.5625-0.21094 1.9062-0.625 0.35156-0.41797 0.53125-1.2461 0.53125-2.4844zm0-5.9688h4.8906v4h-4.8906z"/>
  </symbol>
  <symbol id="j" overflow="visible">
   <path d="m14.719-14.828v3.9844c-0.65625-0.45703-1.3242-0.79688-2-1.0156-0.66797-0.21875-1.3594-0.32812-2.0781-0.32812-1.3672 0-2.4336 0.40234-3.2031 1.2031-0.76172 0.79297-1.1406 1.9062-1.1406 3.3438 0 1.4297 0.37891 2.543 1.1406 3.3438 0.76953 0.79297 1.8359 1.1875 3.2031 1.1875 0.75781 0 1.4844-0.10938 2.1719-0.32812 0.6875-0.22656 1.3203-0.56641 1.9062-1.0156v4c-0.76172 0.28125-1.5391 0.48828-2.3281 0.625-0.78125 0.14453-1.5742 0.21875-2.375 0.21875-2.7617 0-4.9219-0.70703-6.4844-2.125-1.5547-1.4141-2.3281-3.3828-2.3281-5.9062 0-2.5312 0.77344-4.5039 2.3281-5.9219 1.5625-1.4141 3.7227-2.125 6.4844-2.125 0.80078 0 1.5938 0.074219 2.375 0.21875 0.78125 0.13672 1.5547 0.35156 2.3281 0.64062z"/>
  </symbol>
 </defs>
 <g>
  <path d="m561.67 413-2.2266-14.754h9.1172c3.0977 0 5.6016-2.5039 5.6016-5.6016l-0.003906-330.09c0-3.0977-2.5039-5.6016-5.6016-5.6016l-330.81 0.003906c-3.0977 0-5.6016 2.5039-5.6016 5.6016v60.602l-53.344 8.043c-1.4688 0.22266-2.7891 1.0234-3.668 2.2188-0.87891 1.1992-1.2539 2.6953-1.0312 4.1602l3.707 24.504-47.465 12.207c-1.4375 0.37109-2.6758 1.3008-3.4258 2.582s-0.96875 2.8047-0.59375 4.2461l82.594 319.64c0.64844 2.5273 2.9219 4.1992 5.4141 4.1992 0.46484 0 0.93359-0.054688 1.3984-0.17188l318.9-82.039 22.348-3.3672c1.4688-0.22266 2.7891-1.0195 3.668-2.2188 0.88281-1.1992 1.25-2.6914 1.0234-4.1641zm-382.18-239.78 44.004 290.74c0.41406 2.7734 2.8047 4.7656 5.5273 4.7656 0.27344 0 0.55859-0.023437 0.83984-0.0625l196.21-29.566-207.73 53.434-79.785-308.79zm383.46 213.82h-319.61v-318.89h319.61zm-14.84 11.199 1.6406 10.887-15.52 2.3398c-0.32422 0.023438-0.63672-0.035156-0.96484 0.050782l-0.87891 0.23047-298.67 45.008-47.719-315.31 46.133-6.9492v258.15c0 3.0977 2.5039 5.6016 5.6016 5.6016z"/>
  <path d="m271.86 176.36c-9.7773 12.551-14.738 29.926-14.738 51.637 0 22.023 4.9688 39.48 14.758 51.883 0.55469 0.70703 1.1875 1.3203 1.875 1.8555-0.125 0.92969-0.16797 1.875-0.042968 2.8398 1.9805 15.77 10.785 31.562 26.176 46.91 15.598 15.562 31.473 24.406 47.188 26.27 0.4375 0.050781 0.875 0.078125 1.3047 0.078125 0.46094 0 0.88672-0.14453 1.332-0.20312 0.58203 0.77734 1.1992 1.5469 1.9922 2.1602 12.57 9.75 29.98 14.699 51.734 14.699 22.062 0 39.555-4.957 51.98-14.723 0.71875-0.56641 1.25-1.2695 1.793-1.9727 0.51562 0.074219 1.0078 0.23047 1.5391 0.23047 0.45312 0 0.91797-0.027343 1.3789-0.089843 15.797-1.9727 31.617-10.754 47.008-26.105 15.605-15.574 24.465-31.414 26.332-47.098 0.10547-0.88672 0.066406-1.7539-0.035156-2.6055 0.75781-0.57812 1.4609-1.2266 2.0664-2 9.7773-12.551 14.738-29.926 14.738-51.637 0-22.023-4.9688-39.48-14.758-51.883-0.54297-0.6875-1.2266-1.1875-1.8945-1.7148 0.14453-0.97266 0.19141-1.9727 0.066406-2.9805-1.9805-15.773-10.785-31.562-26.176-46.91-15.598-15.562-31.473-24.406-47.188-26.27-0.91406-0.10547-1.8125-0.054687-2.6992 0.054688-0.57031-0.75-1.1602-1.4961-1.9336-2.0898-12.57-9.75-29.98-14.699-51.734-14.699-22.062 0-39.555 4.957-51.98 14.723-0.69922 0.54688-1.2891 1.1914-1.8203 1.8633-0.94531-0.125-1.9102-0.16797-2.8945-0.039063-15.797 1.9727-31.613 10.754-47 26.105-15.605 15.574-24.465 31.414-26.332 47.098-0.11328 0.91406-0.066407 1.8086 0.042968 2.6953-0.73828 0.57422-1.4844 1.1562-2.0781 1.918zm18.059 59.758c0-6.5352 5.3359-11.855 11.895-11.855s11.895 5.3203 11.895 11.855c0 6.5352-5.3359 11.855-11.895 11.855-6.5547 0-11.895-5.3203-11.895-11.855zm0.089844-19.711c1.5508-13.664 5.6406-21.527 8.457-25.699l37.082 15.367c-3.7344 3.2695-6.1484 8.0117-6.1484 13.355 0 9.832 8.0117 17.832 17.852 17.832s17.852-7.9961 17.852-17.832c0-0.39062-0.089844-0.76172-0.11719-1.1523l24.012 9.9531-90.457 37.234c-1.5273-2.3008-2.8633-4.832-4.0078-7.5703 2.3008 0.76562 4.7148 1.2812 7.2734 1.2812 12.734 0 23.094-10.344 23.094-23.055 0-12.711-10.359-23.055-23.094-23.055-4.3203-0.003906-8.3281 1.2617-11.797 3.3398zm38.797 97.652c-2.2383-2.2344-3.4766-5.2188-3.4766-8.3789 0-3.1641 1.2383-6.1484 3.4844-8.3828 4.6367-4.625 12.191-4.625 16.828 0 2.2383 2.2383 3.4766 5.2188 3.4766 8.3828 0 3.1602-1.2383 6.1367-3.4766 8.3789-4.6328 4.6133-12.18 4.625-16.836 0zm-26.129-38.121 37.121-15.305c-0.027343 0.39844-0.11719 0.78516-0.11719 1.1875 0 4.7617 1.8594 9.2344 5.2344 12.605 3.4766 3.4727 8.0469 5.207 12.617 5.207 4.5703 0 9.1406-1.7344 12.617-5.207 3.375-3.3711 5.2344-7.8438 5.2344-12.605 0-4.7656-1.8594-9.2383-5.2344-12.609-0.27344-0.27344-0.59766-0.46875-0.88672-0.72266l24.039-9.9102-37.574 90.156c-2.7148-0.54688-5.4531-1.3984-8.2109-2.5312 2.1602-1.0742 4.2266-2.4141 6.0312-4.2109 4.3672-4.3555 6.7695-10.148 6.7695-16.309 0-6.1641-2.4023-11.957-6.7695-16.312-8.9883-8.9805-23.648-8.9805-32.648 0-2.9961 2.9922-4.9883 6.6875-5.9961 10.684-8.582-10.754-11.262-19.184-12.227-24.117zm96.992 53.941c0-6.5352 5.3359-11.855 11.895-11.855s11.895 5.3203 11.895 11.855-5.3359 11.855-11.895 11.855-11.895-5.3203-11.895-11.855zm-11.199 0c0 4.3164 1.2656 8.3086 3.3438 11.766-13.699-1.5469-21.578-5.6211-25.762-8.4297l15.398-37.004c3.2773 3.7422 8.0312 6.1562 13.391 6.1562 9.8438 0 17.852-7.9961 17.852-17.824 0-9.832-8.0078-17.832-17.852-17.832-0.39844 0-0.76562 0.089844-1.1602 0.11719l9.9805-23.98 37.324 90.281c-2.3125 1.5273-4.8594 2.8633-7.6172 4.0078 0.77344-2.2969 1.2891-4.7109 1.2891-7.2617 0-12.719-10.359-23.055-23.094-23.055-12.734 0.003906-23.094 10.344-23.094 23.059zm104.71-35.328c-0.003907 3.1602-1.2422 6.1367-3.4844 8.3711-4.6367 4.625-12.188 4.625-16.832 0-2.2383-2.2344-3.4766-5.2148-3.4766-8.3711 0-3.1641 1.2383-6.1484 3.4766-8.3828 4.6484-4.625 12.195-4.625 16.832 0 2.2422 2.2422 3.4844 5.2148 3.4844 8.3828zm-17.531 22.258c-10.781 8.5664-19.242 11.238-24.191 12.203l-15.328-37.023c0.39844 0.027344 0.78906 0.11328 1.1914 0.11328 4.5703 0 9.1445-1.7344 12.621-5.207 3.375-3.3711 5.2344-7.8438 5.2344-12.609s-1.8594-9.2383-5.2344-12.609c-6.9492-6.9375-18.277-6.9492-25.238 0-0.28125 0.28125-0.48828 0.60938-0.75 0.90625l-9.9297-23.984 90.367 37.504c-0.54688 2.7031-1.4062 5.4336-2.5352 8.1758-1.0977-2.1914-2.4688-4.2578-4.2578-6.043-8.9883-8.9805-23.648-8.9805-32.648 0-4.3672 4.3555-6.7695 10.148-6.7695 16.312 0 6.1602 2.4062 11.949 6.7695 16.301 3.0586 3.0547 6.7852 4.9805 10.699 5.9609zm41.785-96.438c0 6.5352-5.3359 11.855-11.895 11.855-6.5586 0-11.895-5.3203-11.895-11.855 0-6.5352 5.3359-11.855 11.895-11.855 6.5586 0 11.895 5.3203 11.895 11.855zm-0.09375 19.711c-1.5508 13.664-5.6406 21.527-8.457 25.699l-37.082-15.367c3.7344-3.2695 6.1445-8.0117 6.1445-13.352 0-9.832-8.0078-17.832-17.852-17.832s-17.852 7.9961-17.852 17.832c0 0.39062 0.089843 0.76172 0.11719 1.1484l-24.012-9.9531 90.457-37.23c1.5273 2.3008 2.8633 4.832 4.0078 7.5703-2.3008-0.76562-4.7148-1.2812-7.2734-1.2812-12.734 0-23.094 10.344-23.094 23.055 0 12.711 10.359 23.055 23.094 23.055 4.3281 0.003906 8.3398-1.2656 11.801-3.3438zm-47.215-101.12c3.0508 0 6.1055 1.1523 8.4219 3.4648 2.2383 2.2344 3.4766 5.2188 3.4766 8.3828 0 3.1602-1.2383 6.1367-3.4766 8.3711-4.6406 4.6211-12.188 4.6328-16.84 0-2.2383-2.2344-3.4766-5.2148-3.4766-8.3711 0-3.1641 1.2383-6.1445 3.4766-8.3828 2.3203-2.3086 5.3711-3.4648 8.418-3.4648zm34.551 41.594-37.121 15.301c0.027343-0.39844 0.11719-0.77734 0.11719-1.1758 0-4.7656-1.8594-9.2383-5.2344-12.609-6.957-6.9453-18.277-6.9453-25.234 0-3.375 3.3711-5.2344 7.8438-5.2344 12.609 0 4.7617 1.8594 9.2344 5.2344 12.605 0.27344 0.27344 0.59375 0.46484 0.88672 0.71875l-24.039 9.9102 37.574-90.148c2.7148 0.54688 5.4531 1.3984 8.2109 2.5312-2.168 1.0742-4.2344 2.4141-6.0352 4.2109-4.3672 4.3555-6.7695 10.148-6.7695 16.312 0 6.1602 2.4062 11.949 6.7695 16.301 4.5039 4.4922 10.41 6.7383 16.324 6.7383 5.918 0 11.828-2.2461 16.328-6.7383 2.9961-2.9922 4.9883-6.6797 5.9961-10.68 8.582 10.746 11.266 19.18 12.227 24.113zm-96.988-53.945c0 6.5352-5.3359 11.855-11.895 11.855-6.5625 0-11.898-5.3203-11.898-11.855 0-6.5391 5.3359-11.859 11.898-11.859 6.5547-0.003906 11.895 5.3164 11.895 11.859zm11.199 0c0-4.3164-1.2656-8.3086-3.3359-11.766 13.699 1.5469 21.57 5.6211 25.754 8.4297l-15.398 37.004c-3.2773-3.7422-8.0312-6.1562-13.391-6.1562-9.8438 0-17.852 7.9961-17.852 17.824 0 9.832 8.0117 17.832 17.852 17.832 0.39844 0 0.76562-0.089844 1.1602-0.11719l-9.9805 23.973-37.324-90.277c2.3125-1.5273 4.8555-2.8633 7.6094-4.0039-0.77344 2.2969-1.2891 4.7109-1.2891 7.2578 0 12.719 10.367 23.055 23.102 23.055s23.094-10.336 23.094-23.055zm-101.23 26.953c2.3203-2.3125 5.3633-3.4648 8.4102-3.4648 3.0508 0 6.1055 1.1523 8.4219 3.4648 2.2383 2.2344 3.4766 5.2188 3.4766 8.3789 0 3.1641-1.2383 6.1484-3.4766 8.3828-4.6523 4.6328-12.207 4.625-16.84 0-2.2383-2.2383-3.4766-5.2188-3.4766-8.3828 0-3.168 1.2383-6.1445 3.4844-8.3789zm14.043-13.883c10.785-8.5664 19.246-11.238 24.191-12.207l15.328 37.023c-4.9609-0.33203-10.035 1.3203-13.816 5.0977-3.375 3.3711-5.2344 7.8438-5.2344 12.609s1.8594 9.2383 5.2344 12.609c3.4766 3.4727 8.0547 5.207 12.621 5.207 4.5625 0 9.1406-1.7344 12.617-5.207 0.28125-0.28125 0.48828-0.60938 0.75-0.91406l9.9297 23.984-90.363-37.496c0.54687-2.7031 1.4062-5.4336 2.5312-8.1758 1.0977 2.1914 2.4648 4.2578 4.25 6.043 4.5039 4.4922 10.41 6.7305 16.324 6.7305 5.918 0 11.828-2.2383 16.328-6.7305 4.3633-4.3555 6.7695-10.148 6.7695-16.312 0-6.1602-2.4062-11.949-6.7695-16.309-3.0469-3.0469-6.7734-4.9727-10.691-5.9531zm44.98 42.52c0 1.7656-0.6875 3.4258-1.9414 4.6797-2.6094 2.5977-6.8281 2.5859-9.4258 0-1.2539-1.2539-1.9414-2.918-1.9414-4.6797 0-1.7656 0.6875-3.4258 1.9414-4.6797 1.3008-1.293 3.0078-1.9414 4.7148-1.9414 1.7031 0 3.4062 0.64453 4.7109 1.9414 1.2539 1.2539 1.9414 2.918 1.9414 4.6797zm35.836-3.6211c-3.668 0-6.6523-2.9727-6.6523-6.6289s2.9844-6.625 6.6523-6.625 6.6523 2.9688 6.6523 6.625c0 3.6523-2.9844 6.6289-6.6523 6.6289zm42.012 20.773c-2.6055 2.5938-6.8164 2.5938-9.418 0-1.2539-1.2539-1.9414-2.9102-1.9414-4.6758 0-1.7695 0.6875-3.4258 1.9414-4.6797 1.3008-1.293 3-1.9414 4.7109-1.9414 1.707 0 3.4062 0.64453 4.7109 1.9414 1.2539 1.2539 1.9414 2.9102 1.9414 4.6797-0.003906 1.7656-0.69141 3.4219-1.9453 4.6758zm5.5703 44.344c-3.668 0-6.6523-2.9727-6.6523-6.6289s2.9844-6.6289 6.6523-6.6289c3.668 0 6.6523 2.9727 6.6523 6.6289 0 3.6523-2.9844 6.6289-6.6523 6.6289zm-29.43 30.59c0-1.7656 0.6875-3.4258 1.9414-4.6797 1.3008-1.293 3.0078-1.9414 4.7109-1.9414 1.707 0 3.4102 0.64453 4.7148 1.9414 1.2539 1.2539 1.9414 2.918 1.9414 4.6797 0 1.7656-0.6875 3.4258-1.9414 4.6797-2.5977 2.582-6.8164 2.5938-9.4258 0-1.25-1.2461-1.9414-2.9102-1.9414-4.6797zm-35.832 3.6289c3.668 0 6.6523 2.9727 6.6523 6.6289s-2.9805 6.625-6.6523 6.625-6.6523-2.9688-6.6523-6.625c0-3.6523 2.9844-6.6289 6.6523-6.6289zm-42.016-20.773c1.3008-1.293 3-1.9492 4.7109-1.9492 1.707 0 3.4062 0.64844 4.7031 1.9414 1.2617 1.2617 1.9492 2.918 1.9492 4.6875 0 1.7656-0.6875 3.4219-1.9414 4.6758-2.6055 2.5938-6.8164 2.5938-9.418 0-1.2539-1.2539-1.9414-2.9102-1.9414-4.6758 0-1.7734 0.6875-3.4258 1.9375-4.6797zm-5.5664-44.344c3.668 0 6.6523 2.9727 6.6523 6.6289s-2.9844 6.6289-6.6523 6.6289c-3.668 0-6.6523-2.9727-6.6523-6.6289-0.003907-3.6523 2.9844-6.6289 6.6523-6.6289zm1.293-103.12c0.035157 0.085937 0.050781 0.17188 0.089844 0.25391l2.9414 7.1055c-12.371 3.0312-24.355 10.395-36.438 22.449-12.078 12.059-19.66 24.32-22.688 36.547l-7.3516-3.0508c1.4844-12.879 9.4688-26.852 23.031-40.387 13.566-13.539 27.164-21.246 40.414-22.918zm55.371-16.477c19.164 0 34.234 4.1367 44.793 12.297-0.035156 0.078124-0.078125 0.14453-0.11328 0.22266l-2.9688 7.1289c-10.887-6.5898-24.578-9.8398-41.68-9.8398-17.09 0-31.141 3.3281-41.938 9.8398l-3.0352-7.3359c10.199-8.0625 25.758-12.312 44.941-12.312zm118.6 80.039c-0.085938 0.035156-0.17188 0.027344-0.25781 0.0625l-7.1445 2.9453c-3.0234-12.336-10.406-24.293-22.508-36.367-12.078-12.051-24.367-19.609-36.613-22.629l3.0469-7.3086c12.941 1.4883 26.953 9.4648 40.516 22.992 13.559 13.531 21.281 27.09 22.961 40.305zm4.1797 99.945c-0.085937-0.035157-0.15625-0.085938-0.24609-0.11719l-7.1289-2.957c6.6016-10.863 9.8555-24.527 9.8555-41.578 0-17.035-3.3281-31.047-9.8516-41.832l7.3398-3.0234c8.0977 10.164 12.359 25.676 12.359 44.816-0.003906 19.121-4.1484 34.156-12.328 44.691zm-67.91 73.633c-0.035157-0.078125-0.027344-0.16797-0.0625-0.24609l-2.9453-7.1172c12.375-3.0312 24.348-10.395 36.434-22.449 12.086-12.059 19.668-24.32 22.691-36.547l7.3516 3.0508c-1.4844 12.879-9.4688 26.852-23.031 40.387-13.582 13.543-27.184 21.254-40.438 22.922zm-55.359 16.469c-19.176 0-34.242-4.1367-44.812-12.309 0.035156-0.078125 0.09375-0.13281 0.125-0.21094l2.9688-7.1289c10.887 6.5898 24.578 9.8398 41.68 9.8398 17.09 0 31.148-3.3281 41.938-9.8398l3.0352 7.3359c-10.191 8.0625-25.746 12.312-44.934 12.312zm-118.6-80.016c0.078125-0.035156 0.16406-0.042969 0.24219-0.078125l7.1562-2.9531c3.0234 12.336 10.406 24.293 22.508 36.367 12.074 12.047 24.359 19.605 36.613 22.629l-3.0469 7.3125c-12.941-1.4844-26.953-9.4648-40.516-22.992-13.547-13.52-21.266-27.074-22.957-40.285zm-16.504-55.273c0-19.117 4.1484-34.156 12.324-44.688 0.085937 0.035156 0.15625 0.085937 0.24609 0.11719l7.1289 2.957c-6.6016 10.863-9.8555 24.527-9.8555 41.578 0 17.035 3.3281 31.047 9.8516 41.832l-7.3398 3.0234c-8.0977-10.168-12.355-25.68-12.355-44.82z"/>
 </g>
</svg>
